ffmpeg started on 2026-04-02 at 13:21:35
Report written to "D:\Convert\FFMetrics\reports\psnr_report-6.txt"
Log level: 32
Command line:
ffmpeg -hide_banner -nostdin -r 24/1 -i "F:\\Convert\\files\\Dungeon_ni_Deai_wo_Motomeru_no_wa_Machigatteiru_no_Darou_ka_V_[01]_[AniLibria]_[WEBRip_1080p]_HEVC(309).mkv" -r 24/1 -i "F:\\Convert\\files\\Dungeon_ni_Deai_wo_Motomeru_no_wa_Machigatteiru_no_Darou_ka_V_[01]_[AniLibria]_[WEBRip_1080p].mkv" -lavfi "[0:v]settb=AVTB,setpts=PTS-STARTPTS,format=pix_fmts=yuv420p10le,fps=24/1,scale=1920:1080:flags=lanczos:param0=3:out_range=limited:out_chroma_loc=left,setsar=1/1,setdar=(1920/1080)*(1/1)[main];[1:v]settb=AVTB,setpts=PTS-STARTPTS,format=pix_fmts=yuv420p,fps=24/1,scale=1920:1080:flags=lanczos:param0=3:out_range=limited:out_chroma_loc=left,setsar=1/1,setdar=(1920/1080)*(1/1)[ref];[main][ref]psnr=eof_action=endall:stats_file='D\\:/Convert/FFMetrics/logs/psnr_logfile-6.txt'" -f null -
Input #0, matroska,webm, from 'F:\Convert\files\Dungeon_ni_Deai_wo_Motomeru_no_wa_Machigatteiru_no_Darou_ka_V_[01]_[AniLibria]_[WEBRip_1080p]_HEVC(309).mkv':
  Metadata:
    ENCODER         : Lavf61.7.100
  Duration: 00:23:42.42, start: -0.021000, bitrate: 999 kb/s
  Stream #0:0(jpn): Video: hevc (Main 10), yuv420p10le(tv, progressive), 1920x1080 [SAR 1:1 DAR 16:9], 24 fps, 24 tbr, 1k tbn (default) (forced)
      Metadata:
        ENCODER         : Lavc61.19.100 libx265
        BPS             : 752939
        DURATION        : 00:23:42.416666666
        NUMBER_OF_FRAMES: 34138
        NUMBER_OF_BYTES : 133874210
        _STATISTICS_WRITING_APP: mkvpropedit v94.0 ('Initiate') 64-bit
        _STATISTICS_WRITING_DATE_UTC: 2026-04-02 09:58:30
        _STATISTICS_TAGS: BPS DURATION NUMBER_OF_FRAMES NUMBER_OF_BYTES
  Stream #0:1(rus): Audio: aac (LC), 48000 Hz, stereo, fltp (default) (forced)
      Metadata:
        title           : AniLibria
        ENCODER         : Lavc61.19.100 aac
        BPS             : 194199
        DURATION        : 00:23:42.399000000
        NUMBER_OF_FRAMES: 66676
        NUMBER_OF_BYTES : 34528622
        _STATISTICS_WRITING_APP: mkvpropedit v94.0 ('Initiate') 64-bit
        _STATISTICS_WRITING_DATE_UTC: 2026-04-02 09:58:30
        _STATISTICS_TAGS: BPS DURATION NUMBER_OF_FRAMES NUMBER_OF_BYTES
  Stream #0:2(rus): Subtitle: ass (ssa) (default) (forced)
      Metadata:
        title           : Надписи
        BPS             : 142
        DURATION        : 00:22:42.440000000
        NUMBER_OF_FRAMES: 88
        NUMBER_OF_BYTES : 24274
        _STATISTICS_WRITING_APP: mkvpropedit v94.0 ('Initiate') 64-bit
        _STATISTICS_WRITING_DATE_UTC: 2026-04-02 09:58:30
        _STATISTICS_TAGS: BPS DURATION NUMBER_OF_FRAMES NUMBER_OF_BYTES
  Stream #0:3(rus): Subtitle: ass (ssa)
      Metadata:
        title           : Полные
        BPS             : 303
        DURATION        : 00:23:34.040000000
        NUMBER_OF_FRAMES: 463
        NUMBER_OF_BYTES : 53572
        _STATISTICS_WRITING_APP: mkvpropedit v94.0 ('Initiate') 64-bit
        _STATISTICS_WRITING_DATE_UTC: 2026-04-02 09:58:30
        _STATISTICS_TAGS: BPS DURATION NUMBER_OF_FRAMES NUMBER_OF_BYTES
  Stream #0:4: Attachment: ttf
      Metadata:
        filename        : 10352_0.TTF
        mimetype        : application/x-truetype-font
  Stream #0:5: Attachment: ttf
      Metadata:
        filename        : ARIAL.TTF
        mimetype        : application/x-truetype-font
  Stream #0:6: Attachment: ttf
      Metadata:
        filename        : ARIAL_4.TTF
        mimetype        : application/x-truetype-font
  Stream #0:7: Attachment: ttf
      Metadata:
        filename        : ARIALBD.TTF
        mimetype        : application/x-truetype-font
  Stream #0:8: Attachment: ttf
      Metadata:
        filename        : ARIALBD_0.TTF
        mimetype        : application/x-truetype-font
  Stream #0:9: Attachment: ttf
      Metadata:
        filename        : ARIALBI.TTF
        mimetype        : application/x-truetype-font
  Stream #0:10: Attachment: ttf
      Metadata:
        filename        : ARIALBI_0.TTF
        mimetype        : application/x-truetype-font
  Stream #0:11: Attachment: ttf
      Metadata:
        filename        : ARIALI.TTF
        mimetype        : application/x-truetype-font
  Stream #0:12: Attachment: ttf
      Metadata:
        filename        : ARIALI_0.TTF
        mimetype        : application/x-truetype-font
  Stream #0:13: Attachment: ttf
      Metadata:
        filename        : ARIALN.TTF
        mimetype        : application/x-truetype-font
  Stream #0:14: Attachment: ttf
      Metadata:
        filename        : ARIALN_0.TTF
        mimetype        : application/x-truetype-font
  Stream #0:15: Attachment: ttf
      Metadata:
        filename        : ARIALNB.TTF
        mimetype        : application/x-truetype-font
  Stream #0:16: Attachment: ttf
      Metadata:
        filename        : ARIALNBI.TTF
        mimetype        : application/x-truetype-font
  Stream #0:17: Attachment: ttf
      Metadata:
        filename        : ARIALNI.TTF
        mimetype        : application/x-truetype-font
  Stream #0:18: Attachment: ttf
      Metadata:
        filename        : ARIBLK.TTF
        mimetype        : application/x-truetype-font
  Stream #0:19: Attachment: ttf
      Metadata:
        filename        : ARIBLK_0.TTF
        mimetype        : application/x-truetype-font
  Stream #0:20: Attachment: ttf
      Metadata:
        filename        : ARLEKINO.TTF
        mimetype        : application/x-truetype-font
  Stream #0:21: Attachment: ttf
      Metadata:
        filename        : BOOKOS.TTF
        mimetype        : application/x-truetype-font
  Stream #0:22: Attachment: ttf
      Metadata:
        filename        : BOOKOS_0.TTF
        mimetype        : application/x-truetype-font
  Stream #0:23: Attachment: ttf
      Metadata:
        filename        : BOOKOSB.TTF
        mimetype        : application/x-truetype-font
  Stream #0:24: Attachment: ttf
      Metadata:
        filename        : BOOKOSBI.TTF
        mimetype        : application/x-truetype-font
  Stream #0:25: Attachment: ttf
      Metadata:
        filename        : BOOKOSI.TTF
        mimetype        : application/x-truetype-font
  Stream #0:26: Attachment: ttf
      Metadata:
        filename        : Roboto-Medium.ttf
        mimetype        : application/x-truetype-font
Input #1, matroska,webm, from 'F:\Convert\files\Dungeon_ni_Deai_wo_Motomeru_no_wa_Machigatteiru_no_Darou_ka_V_[01]_[AniLibria]_[WEBRip_1080p].mkv':
  Metadata:
    encoder         : libebml v1.3.10 + libmatroska v1.5.2
    creation_time   : 2024-10-04T13:48:57.000000Z
  Duration: 00:23:42.42, start: 0.000000, bitrate: 5386 kb/s
  Stream #1:0(jpn): Video: h264 (High), yuv420p(progressive), 1920x1080 [SAR 1:1 DAR 16:9], 24 fps, 24 tbr, 1k tbn (default) (forced)
      Metadata:
        BPS-eng         : 5014079
        DURATION-eng    : 00:23:42.417000000
        NUMBER_OF_FRAMES-eng: 34138
        NUMBER_OF_BYTES-eng: 891513907
        _STATISTICS_WRITING_APP-eng: mkvmerge v45.0.0 ('Heaven in Pennies') 64-bit
        _STATISTICS_WRITING_DATE_UTC-eng: 2024-10-04 13:48:57
        _STATISTICS_TAGS-eng: BPS DURATION NUMBER_OF_FRAMES NUMBER_OF_BYTES
  Stream #1:1(rus): Audio: aac (LC), 48000 Hz, stereo, fltp (default) (forced)
      Metadata:
        title           : AniLibria
        BPS-eng         : 192088
        DURATION-eng    : 00:23:42.400000000
        NUMBER_OF_FRAMES-eng: 66675
        NUMBER_OF_BYTES-eng: 34153247
        _STATISTICS_WRITING_APP-eng: mkvmerge v45.0.0 ('Heaven in Pennies') 64-bit
        _STATISTICS_WRITING_DATE_UTC-eng: 2024-10-04 13:48:57
        _STATISTICS_TAGS-eng: BPS DURATION NUMBER_OF_FRAMES NUMBER_OF_BYTES
  Stream #1:2(jpn): Audio: aac (LC), 48000 Hz, stereo, fltp
      Metadata:
        title           : Original
        BPS-eng         : 128824
        DURATION-eng    : 00:23:42.421000000
        NUMBER_OF_FRAMES-eng: 66676
        NUMBER_OF_BYTES-eng: 22905301
        _STATISTICS_WRITING_APP-eng: mkvmerge v45.0.0 ('Heaven in Pennies') 64-bit
        _STATISTICS_WRITING_DATE_UTC-eng: 2024-10-04 13:48:57
        _STATISTICS_TAGS-eng: BPS DURATION NUMBER_OF_FRAMES NUMBER_OF_BYTES
  Stream #1:3(rus): Subtitle: ass (ssa) (default) (forced)
      Metadata:
        title           : Надписи
        BPS-eng         : 142
        DURATION-eng    : 00:22:42.440000000
        NUMBER_OF_FRAMES-eng: 88
        NUMBER_OF_BYTES-eng: 24274
        _STATISTICS_WRITING_APP-eng: mkvmerge v45.0.0 ('Heaven in Pennies') 64-bit
        _STATISTICS_WRITING_DATE_UTC-eng: 2024-10-04 13:48:57
        _STATISTICS_TAGS-eng: BPS DURATION NUMBER_OF_FRAMES NUMBER_OF_BYTES
  Stream #1:4(rus): Subtitle: ass (ssa)
      Metadata:
        title           : Полные
        BPS-eng         : 303
        DURATION-eng    : 00:23:34.040000000
        NUMBER_OF_FRAMES-eng: 463
        NUMBER_OF_BYTES-eng: 53572
        _STATISTICS_WRITING_APP-eng: mkvmerge v45.0.0 ('Heaven in Pennies') 64-bit
        _STATISTICS_WRITING_DATE_UTC-eng: 2024-10-04 13:48:57
        _STATISTICS_TAGS-eng: BPS DURATION NUMBER_OF_FRAMES NUMBER_OF_BYTES
  Stream #1:5: Attachment: ttf
      Metadata:
        filename        : 10352_0.TTF
        mimetype        : application/x-truetype-font
  Stream #1:6: Attachment: ttf
      Metadata:
        filename        : ARIAL.TTF
        mimetype        : application/x-truetype-font
  Stream #1:7: Attachment: ttf
      Metadata:
        filename        : ARIAL_4.TTF
        mimetype        : application/x-truetype-font
  Stream #1:8: Attachment: ttf
      Metadata:
        filename        : ARIALBD.TTF
        mimetype        : application/x-truetype-font
  Stream #1:9: Attachment: ttf
      Metadata:
        filename        : ARIALBD_0.TTF
        mimetype        : application/x-truetype-font
  Stream #1:10: Attachment: ttf
      Metadata:
        filename        : ARIALBI.TTF
        mimetype        : application/x-truetype-font
  Stream #1:11: Attachment: ttf
      Metadata:
        filename        : ARIALBI_0.TTF
        mimetype        : application/x-truetype-font
  Stream #1:12: Attachment: ttf
      Metadata:
        filename        : ARIALI.TTF
        mimetype        : application/x-truetype-font
  Stream #1:13: Attachment: ttf
      Metadata:
        filename        : ARIALI_0.TTF
        mimetype        : application/x-truetype-font
  Stream #1:14: Attachment: ttf
      Metadata:
        filename        : ARIALN.TTF
        mimetype        : application/x-truetype-font
  Stream #1:15: Attachment: ttf
      Metadata:
        filename        : ARIALN_0.TTF
        mimetype        : application/x-truetype-font
  Stream #1:16: Attachment: ttf
      Metadata:
        filename        : ARIALNB.TTF
        mimetype        : application/x-truetype-font
  Stream #1:17: Attachment: ttf
      Metadata:
        filename        : ARIALNBI.TTF
        mimetype        : application/x-truetype-font
  Stream #1:18: Attachment: ttf
      Metadata:
        filename        : ARIALNI.TTF
        mimetype        : application/x-truetype-font
  Stream #1:19: Attachment: ttf
      Metadata:
        filename        : ARIBLK.TTF
        mimetype        : application/x-truetype-font
  Stream #1:20: Attachment: ttf
      Metadata:
        filename        : ARIBLK_0.TTF
        mimetype        : application/x-truetype-font
  Stream #1:21: Attachment: ttf
      Metadata:
        filename        : ARLEKINO.TTF
        mimetype        : application/x-truetype-font
  Stream #1:22: Attachment: ttf
      Metadata:
        filename        : BOOKOS.TTF
        mimetype        : application/x-truetype-font
  Stream #1:23: Attachment: ttf
      Metadata:
        filename        : BOOKOS_0.TTF
        mimetype        : application/x-truetype-font
  Stream #1:24: Attachment: ttf
      Metadata:
        filename        : BOOKOSB.TTF
        mimetype        : application/x-truetype-font
  Stream #1:25: Attachment: ttf
      Metadata:
        filename        : BOOKOSBI.TTF
        mimetype        : application/x-truetype-font
  Stream #1:26: Attachment: ttf
      Metadata:
        filename        : BOOKOSI.TTF
        mimetype        : application/x-truetype-font
  Stream #1:27: Attachment: ttf
      Metadata:
        filename        : Roboto-Medium.ttf
        mimetype        : application/x-truetype-font
Stream mapping:
  Stream #0:0 (hevc) -> settb:default
  Stream #1:0 (h264) -> settb:default
  psnr:default -> Stream #0:0 (wrapped_avframe)
  Stream #0:1 -> #0:1 (aac (native) -> pcm_s16le (native))
Output #0, null, to 'pipe:':
  Metadata:
    encoder         : Lavf61.7.100
  Stream #0:0: Video: wrapped_avframe, yuv420p10le(tv, progressive), 1920x1080 [SAR 1:1 DAR 16:9], q=2-31, 200 kb/s, 24 fps, 24 tbn
      Metadata:
        encoder         : Lavc61.19.100 wrapped_avframe
  Stream #0:1(rus): Audio: pcm_s16le, 48000 Hz, stereo, s16, 1536 kb/s (default) (forced)
      Metadata:
        title           : AniLibria
        _STATISTICS_TAGS: BPS DURATION NUMBER_OF_FRAMES NUMBER_OF_BYTES
        BPS             : 194199
        DURATION        : 00:23:42.399000000
        NUMBER_OF_FRAMES: 66676
        NUMBER_OF_BYTES : 34528622
        _STATISTICS_WRITING_APP: mkvpropedit v94.0 ('Initiate') 64-bit
        _STATISTICS_WRITING_DATE_UTC: 2026-04-02 09:58:30
        encoder         : Lavc61.19.100 pcm_s16le
frame=  180 fps=0.0 q=-0.0 size=N/A time=00:00:07.50 bitrate=N/A speed=14.4x    frame=  388 fps=375 q=-0.0 size=N/A time=00:00:16.16 bitrate=N/A speed=15.6x    frame=  584 fps=378 q=-0.0 size=N/A time=00:00:24.33 bitrate=N/A speed=15.8x    frame=  817 fps=394 q=-0.0 size=N/A time=00:00:34.04 bitrate=N/A speed=16.4x    frame= 1050 fps=406 q=-0.0 size=N/A time=00:00:43.75 bitrate=N/A speed=16.9x    frame= 1269 fps=410 q=-0.0 size=N/A time=00:00:52.87 bitrate=N/A speed=17.1x    frame= 1457 fps=404 q=-0.0 size=N/A time=00:01:00.70 bitrate=N/A speed=16.8x    frame= 1643 fps=397 q=-0.0 size=N/A time=00:01:08.45 bitrate=N/A speed=16.6x    frame= 1807 fps=389 q=-0.0 size=N/A time=00:01:15.29 bitrate=N/A speed=16.2x    frame= 1979 fps=384 q=-0.0 size=N/A time=00:01:22.45 bitrate=N/A speed=  16x    frame= 2153 fps=380 q=-0.0 size=N/A time=00:01:29.70 bitrate=N/A speed=15.8x    frame= 2349 fps=379 q=-0.0 size=N/A time=00:01:37.87 bitrate=N/A speed=15.8x    frame= 2539 fps=379 q=-0.0 size=N/A time=00:01:45.79 bitrate=N/A speed=15.8x    frame= 2697 fps=374 q=-0.0 size=N/A time=00:01:52.37 bitrate=N/A speed=15.6x    frame= 2840 fps=367 q=-0.0 size=N/A time=00:01:58.33 bitrate=N/A speed=15.3x    frame= 3023 fps=366 q=-0.0 size=N/A time=00:02:05.95 bitrate=N/A speed=15.3x    frame= 3197 fps=365 q=-0.0 size=N/A time=00:02:13.20 bitrate=N/A speed=15.2x    frame= 3387 fps=365 q=-0.0 size=N/A time=00:02:21.12 bitrate=N/A speed=15.2x    frame= 3616 fps=369 q=-0.0 size=N/A time=00:02:30.66 bitrate=N/A speed=15.4x    frame= 3851 fps=373 q=-0.0 size=N/A time=00:02:40.45 bitrate=N/A speed=15.5x    frame= 4064 fps=375 q=-0.0 size=N/A time=00:02:49.33 bitrate=N/A speed=15.6x    frame= 4287 fps=378 q=-0.0 size=N/A time=00:02:58.62 bitrate=N/A speed=15.7x    frame= 4513 fps=380 q=-0.0 size=N/A time=00:03:08.04 bitrate=N/A speed=15.8x    frame= 4753 fps=384 q=-0.0 size=N/A time=00:03:18.04 bitrate=N/A speed=  16x    frame= 4986 fps=387 q=-0.0 size=N/A time=00:03:27.75 bitrate=N/A speed=16.1x    frame= 5225 fps=390 q=-0.0 size=N/A time=00:03:37.70 bitrate=N/A speed=16.2x    frame= 5448 fps=391 q=-0.0 size=N/A time=00:03:47.00 bitrate=N/A speed=16.3x    frame= 5661 fps=392 q=-0.0 size=N/A time=00:03:55.87 bitrate=N/A speed=16.3x    frame= 5880 fps=393 q=-0.0 size=N/A time=00:04:05.00 bitrate=N/A speed=16.4x    frame= 6107 fps=395 q=-0.0 size=N/A time=00:04:14.45 bitrate=N/A speed=16.5x    frame= 6316 fps=395 q=-0.0 size=N/A time=00:04:23.16 bitrate=N/A speed=16.5x    frame= 6532 fps=396 q=-0.0 size=N/A time=00:04:32.16 bitrate=N/A speed=16.5x    frame= 6758 fps=397 q=-0.0 size=N/A time=00:04:41.58 bitrate=N/A speed=16.5x    frame= 6960 fps=397 q=-0.0 size=N/A time=00:04:50.00 bitrate=N/A speed=16.5x    frame= 7207 fps=399 q=-0.0 size=N/A time=00:05:00.29 bitrate=N/A speed=16.6x    frame= 7444 fps=401 q=-0.0 size=N/A time=00:05:10.16 bitrate=N/A speed=16.7x    frame= 7678 fps=402 q=-0.0 size=N/A time=00:05:19.91 bitrate=N/A speed=16.8x    frame= 7923 fps=404 q=-0.0 size=N/A time=00:05:30.12 bitrate=N/A speed=16.9x    frame= 8161 fps=406 q=-0.0 size=N/A time=00:05:40.04 bitrate=N/A speed=16.9x    frame= 8374 fps=406 q=-0.0 size=N/A time=00:05:48.91 bitrate=N/A speed=16.9x    frame= 8611 fps=407 q=-0.0 size=N/A time=00:05:58.79 bitrate=N/A speed=  17x    frame= 8855 fps=409 q=-0.0 size=N/A time=00:06:08.95 bitrate=N/A speed=  17x    frame= 9096 fps=410 q=-0.0 size=N/A time=00:06:19.00 bitrate=N/A speed=17.1x    frame= 9317 fps=411 q=-0.0 size=N/A time=00:06:28.20 bitrate=N/A speed=17.1x    frame= 9555 fps=412 q=-0.0 size=N/A time=00:06:38.12 bitrate=N/A speed=17.2x    frame= 9789 fps=413 q=-0.0 size=N/A time=00:06:47.87 bitrate=N/A speed=17.2x    frame=10018 fps=413 q=-0.0 size=N/A time=00:06:57.41 bitrate=N/A speed=17.2x    frame=10245 fps=414 q=-0.0 size=N/A time=00:07:06.87 bitrate=N/A speed=17.2x    frame=10471 fps=414 q=-0.0 size=N/A time=00:07:16.29 bitrate=N/A speed=17.3x    frame=10705 fps=415 q=-0.0 size=N/A time=00:07:26.04 bitrate=N/A speed=17.3x    frame=10906 fps=414 q=-0.0 size=N/A time=00:07:34.41 bitrate=N/A speed=17.3x    frame=11133 fps=415 q=-0.0 size=N/A time=00:07:43.87 bitrate=N/A speed=17.3x    frame=11363 fps=415 q=-0.0 size=N/A time=00:07:53.45 bitrate=N/A speed=17.3x    frame=11596 fps=416 q=-0.0 size=N/A time=00:08:03.16 bitrate=N/A speed=17.3x    frame=11825 fps=416 q=-0.0 size=N/A time=00:08:12.70 bitrate=N/A speed=17.4x    frame=12057 fps=417 q=-0.0 size=N/A time=00:08:22.37 bitrate=N/A speed=17.4x    frame=12301 fps=418 q=-0.0 size=N/A time=00:08:32.54 bitrate=N/A speed=17.4x    frame=12541 fps=419 q=-0.0 size=N/A time=00:08:42.54 bitrate=N/A speed=17.4x    frame=12765 fps=419 q=-0.0 size=N/A time=00:08:51.87 bitrate=N/A speed=17.5x    frame=13009 fps=420 q=-0.0 size=N/A time=00:09:02.04 bitrate=N/A speed=17.5x    frame=13251 fps=421 q=-0.0 size=N/A time=00:09:12.12 bitrate=N/A speed=17.5x    frame=13485 fps=421 q=-0.0 size=N/A time=00:09:21.87 bitrate=N/A speed=17.6x    frame=13696 fps=421 q=-0.0 size=N/A time=00:09:30.66 bitrate=N/A speed=17.5x    frame=13917 fps=421 q=-0.0 size=N/A time=00:09:39.87 bitrate=N/A speed=17.6x    frame=14153 fps=422 q=-0.0 size=N/A time=00:09:49.70 bitrate=N/A speed=17.6x    frame=14384 fps=422 q=-0.0 size=N/A time=00:09:59.33 bitrate=N/A speed=17.6x    frame=14612 fps=423 q=-0.0 size=N/A time=00:10:08.83 bitrate=N/A speed=17.6x    frame=14857 fps=423 q=-0.0 size=N/A time=00:10:19.04 bitrate=N/A speed=17.6x    frame=15099 fps=424 q=-0.0 size=N/A time=00:10:29.12 bitrate=N/A speed=17.7x    frame=15338 fps=425 q=-0.0 size=N/A time=00:10:39.08 bitrate=N/A speed=17.7x    frame=15563 fps=425 q=-0.0 size=N/A time=00:10:48.45 bitrate=N/A speed=17.7x    frame=15789 fps=425 q=-0.0 size=N/A time=00:10:57.87 bitrate=N/A speed=17.7x    frame=16030 fps=425 q=-0.0 size=N/A time=00:11:07.91 bitrate=N/A speed=17.7x    frame=16280 fps=426 q=-0.0 size=N/A time=00:11:18.33 bitrate=N/A speed=17.8x    frame=16507 fps=426 q=-0.0 size=N/A time=00:11:27.79 bitrate=N/A speed=17.8x    frame=16746 fps=427 q=-0.0 size=N/A time=00:11:37.75 bitrate=N/A speed=17.8x    frame=16982 fps=427 q=-0.0 size=N/A time=00:11:47.58 bitrate=N/A speed=17.8x    frame=17214 fps=428 q=-0.0 size=N/A time=00:11:57.25 bitrate=N/A speed=17.8x    frame=17451 fps=428 q=-0.0 size=N/A time=00:12:07.12 bitrate=N/A speed=17.8x    frame=17685 fps=428 q=-0.0 size=N/A time=00:12:16.87 bitrate=N/A speed=17.8x    frame=17909 fps=428 q=-0.0 size=N/A time=00:12:26.20 bitrate=N/A speed=17.8x    frame=18132 fps=428 q=-0.0 size=N/A time=00:12:35.50 bitrate=N/A speed=17.8x    frame=18346 fps=428 q=-0.0 size=N/A time=00:12:44.41 bitrate=N/A speed=17.8x    frame=18555 fps=428 q=-0.0 size=N/A time=00:12:53.12 bitrate=N/A speed=17.8x    frame=18774 fps=428 q=-0.0 size=N/A time=00:13:02.25 bitrate=N/A speed=17.8x    frame=19029 fps=429 q=-0.0 size=N/A time=00:13:12.87 bitrate=N/A speed=17.9x    frame=19255 fps=429 q=-0.0 size=N/A time=00:13:22.29 bitrate=N/A speed=17.9x    frame=19485 fps=429 q=-0.0 size=N/A time=00:13:31.87 bitrate=N/A speed=17.9x    frame=19725 fps=429 q=-0.0 size=N/A time=00:13:41.87 bitrate=N/A speed=17.9x    frame=19956 fps=430 q=-0.0 size=N/A time=00:13:51.50 bitrate=N/A speed=17.9x    frame=20191 fps=430 q=-0.0 size=N/A time=00:14:01.29 bitrate=N/A speed=17.9x    frame=20431 fps=430 q=-0.0 size=N/A time=00:14:11.29 bitrate=N/A speed=17.9x    frame=20650 fps=430 q=-0.0 size=N/A time=00:14:20.41 bitrate=N/A speed=17.9x    frame=20879 fps=430 q=-0.0 size=N/A time=00:14:29.95 bitrate=N/A speed=17.9x    frame=21107 fps=430 q=-0.0 size=N/A time=00:14:39.45 bitrate=N/A speed=17.9x    frame=21322 fps=430 q=-0.0 size=N/A time=00:14:48.41 bitrate=N/A speed=17.9x    frame=21549 fps=430 q=-0.0 size=N/A time=00:14:57.87 bitrate=N/A speed=17.9x    frame=21791 fps=431 q=-0.0 size=N/A time=00:15:07.95 bitrate=N/A speed=  18x    frame=22032 fps=431 q=-0.0 size=N/A time=00:15:18.00 bitrate=N/A speed=  18x    frame=22253 fps=431 q=-0.0 size=N/A time=00:15:27.20 bitrate=N/A speed=  18x    frame=22475 fps=431 q=-0.0 size=N/A time=00:15:36.45 bitrate=N/A speed=  18x    frame=22701 fps=431 q=-0.0 size=N/A time=00:15:45.87 bitrate=N/A speed=  18x    frame=22932 fps=431 q=-0.0 size=N/A time=00:15:55.50 bitrate=N/A speed=  18x    frame=23166 fps=432 q=-0.0 size=N/A time=00:16:05.25 bitrate=N/A speed=  18x    frame=23406 fps=432 q=-0.0 size=N/A time=00:16:15.25 bitrate=N/A speed=  18x    frame=23618 fps=432 q=-0.0 size=N/A time=00:16:24.08 bitrate=N/A speed=  18x    frame=23853 fps=432 q=-0.0 size=N/A time=00:16:33.87 bitrate=N/A speed=  18x    frame=24093 fps=432 q=-0.0 size=N/A time=00:16:43.87 bitrate=N/A speed=  18x    frame=24326 fps=432 q=-0.0 size=N/A time=00:16:53.58 bitrate=N/A speed=  18x    frame=24559 fps=433 q=-0.0 size=N/A time=00:17:03.29 bitrate=N/A speed=  18x    frame=24801 fps=433 q=-0.0 size=N/A time=00:17:13.37 bitrate=N/A speed=  18x    frame=25040 fps=433 q=-0.0 size=N/A time=00:17:23.33 bitrate=N/A speed=  18x    frame=25263 fps=433 q=-0.0 size=N/A time=00:17:32.62 bitrate=N/A speed=  18x    frame=25507 fps=433 q=-0.0 size=N/A time=00:17:42.79 bitrate=N/A speed=18.1x    frame=25733 fps=433 q=-0.0 size=N/A time=00:17:52.20 bitrate=N/A speed=18.1x    frame=25965 fps=434 q=-0.0 size=N/A time=00:18:01.87 bitrate=N/A speed=18.1x    frame=26200 fps=434 q=-0.0 size=N/A time=00:18:11.66 bitrate=N/A speed=18.1x    frame=26422 fps=434 q=-0.0 size=N/A time=00:18:20.91 bitrate=N/A speed=18.1x    frame=26658 fps=434 q=-0.0 size=N/A time=00:18:30.75 bitrate=N/A speed=18.1x    frame=26852 fps=434 q=-0.0 size=N/A time=00:18:38.83 bitrate=N/A speed=18.1x    frame=27066 fps=433 q=-0.0 size=N/A time=00:18:47.75 bitrate=N/A speed=18.1x    frame=27283 fps=433 q=-0.0 size=N/A time=00:18:56.79 bitrate=N/A speed=18.1x    frame=27526 fps=434 q=-0.0 size=N/A time=00:19:06.91 bitrate=N/A speed=18.1x    frame=27741 fps=433 q=-0.0 size=N/A time=00:19:15.87 bitrate=N/A speed=18.1x    frame=27897 fps=432 q=-0.0 size=N/A time=00:19:22.37 bitrate=N/A speed=  18x    frame=28081 fps=432 q=-0.0 size=N/A time=00:19:30.04 bitrate=N/A speed=  18x    frame=28261 fps=431 q=-0.0 size=N/A time=00:19:37.54 bitrate=N/A speed=  18x    frame=28435 fps=430 q=-0.0 size=N/A time=00:19:44.79 bitrate=N/A speed=17.9x    frame=28613 fps=430 q=-0.0 size=N/A time=00:19:52.20 bitrate=N/A speed=17.9x    frame=28824 fps=430 q=-0.0 size=N/A time=00:20:01.00 bitrate=N/A speed=17.9x    frame=29039 fps=429 q=-0.0 size=N/A time=00:20:09.95 bitrate=N/A speed=17.9x    frame=29257 fps=429 q=-0.0 size=N/A time=00:20:19.04 bitrate=N/A speed=17.9x    frame=29469 fps=429 q=-0.0 size=N/A time=00:20:27.87 bitrate=N/A speed=17.9x    frame=29641 fps=429 q=-0.0 size=N/A time=00:20:35.04 bitrate=N/A speed=17.9x    frame=29802 fps=428 q=-0.0 size=N/A time=00:20:41.75 bitrate=N/A speed=17.8x    frame=29969 fps=427 q=-0.0 size=N/A time=00:20:48.70 bitrate=N/A speed=17.8x    frame=30142 fps=426 q=-0.0 size=N/A time=00:20:55.91 bitrate=N/A speed=17.8x    frame=30324 fps=426 q=-0.0 size=N/A time=00:21:03.50 bitrate=N/A speed=17.7x    frame=30508 fps=425 q=-0.0 size=N/A time=00:21:11.16 bitrate=N/A speed=17.7x    frame=30685 fps=425 q=-0.0 size=N/A time=00:21:18.54 bitrate=N/A speed=17.7x    frame=30861 fps=424 q=-0.0 size=N/A time=00:21:25.87 bitrate=N/A speed=17.7x    frame=31028 fps=423 q=-0.0 size=N/A time=00:21:32.83 bitrate=N/A speed=17.6x    frame=31214 fps=423 q=-0.0 size=N/A time=00:21:40.58 bitrate=N/A speed=17.6x    frame=31405 fps=423 q=-0.0 size=N/A time=00:21:48.54 bitrate=N/A speed=17.6x    frame=31615 fps=422 q=-0.0 size=N/A time=00:21:57.29 bitrate=N/A speed=17.6x    frame=31844 fps=423 q=-0.0 size=N/A time=00:22:06.83 bitrate=N/A speed=17.6x    frame=32079 fps=423 q=-0.0 size=N/A time=00:22:16.62 bitrate=N/A speed=17.6x    frame=32294 fps=423 q=-0.0 size=N/A time=00:22:25.58 bitrate=N/A speed=17.6x    frame=32534 fps=423 q=-0.0 size=N/A time=00:22:35.58 bitrate=N/A speed=17.6x    frame=32780 fps=423 q=-0.0 size=N/A time=00:22:45.83 bitrate=N/A speed=17.6x    frame=33019 fps=424 q=-0.0 size=N/A time=00:22:55.79 bitrate=N/A speed=17.7x    frame=33256 fps=424 q=-0.0 size=N/A time=00:23:05.66 bitrate=N/A speed=17.7x    frame=33498 fps=424 q=-0.0 size=N/A time=00:23:15.75 bitrate=N/A speed=17.7x    frame=33741 fps=424 q=-0.0 size=N/A time=00:23:25.87 bitrate=N/A speed=17.7x    frame=33985 fps=425 q=-0.0 size=N/A time=00:23:36.04 bitrate=N/A speed=17.7x    [Parsed_psnr_14 @ 00000206b823ed80] PSNR y:48.474515 u:51.180397 v:51.612706 average:49.247437 min:41.541501 max:inf
[out#0/null @ 00000206b421cfc0] video:14669KiB audio:266704KiB subtitle:0KiB other streams:0KiB global headers:0KiB muxing overhead: unknown
frame=34138 fps=425 q=-0.0 Lsize=N/A time=00:23:42.41 bitrate=N/A speed=17.7x    
